<?xml version="1.0" encoding="UTF-8"?> <svg xmlns="http://www.w3.org/2000/svg" width="50" height="50" viewBox="0 0 50 50" fill="none"> <path d="M23.6027 25.548H24.3867C26.6267 25.548 27.2427 26.164 27.2427 27.158C27.2427 28.334 26.6267 28.894 24.9467 28.894C23.5467 28.894 22.4687 28.376 21.9227 27.886V29.426C22.4687 29.79 23.5047 30.112 25.0447 30.112C27.3267 30.112 28.4327 29.062 28.4327 27.158C28.4327 25.73 27.5087 24.96 25.9687 24.862C27.3547 24.498 27.9707 23.728 27.9567 22.468C27.9427 20.774 27.0047 20.116 24.9887 20.116C23.5467 20.116 22.5667 20.452 21.9927 20.816V22.118C22.6087 21.726 23.5467 21.264 24.7647 21.264C26.3467 21.264 26.7667 21.726 26.7667 22.678C26.7667 23.896 26.0527 24.498 24.3727 24.498H23.6027V25.548Z" fill="#2B2B2B"></path> <circle cx="25" cy="25" r="24.5" stroke="#2B2B2B"></circle> </svg> 